<?xml version="1.0" encoding="UTF-8" standalone="no"?>
<!-- Created with Inkscape (http://www.inkscape.org/) -->

<svg
   xmlns:dc="http://purl.org/dc/elements/1.1/"
   xmlns:cc="http://creativecommons.org/ns#"
   xmlns:rdf="http://www.w3.org/1999/02/22-rdf-syntax-ns#"
   xmlns:svg="http://www.w3.org/2000/svg"
   xmlns="http://www.w3.org/2000/svg"
   xmlns:sodipodi="http://sodipodi.sourceforge.net/DTD/sodipodi-0.dtd"
   xmlns:inkscape="http://www.inkscape.org/namespaces/inkscape"
   width="140"
   height="60"
   viewBox="0 0 37.041668 15.875"
   version="1.1"
   id="svg8"
   sodipodi:docname="logo.svg"
   inkscape:version="0.92.4 (5da689c313, 2019-01-14)"
   inkscape:export-filename="logo.png"
   inkscape:export-xdpi="96"
   inkscape:export-ydpi="96">
  <defs
     id="defs2">
    <filter
       style="color-interpolation-filters:sRGB"
       inkscape:label="Drop Shadow"
       id="filter111">
      <feFlood
         flood-opacity="0.498039"
         flood-color="rgb(0,0,0)"
         result="flood"
         id="feFlood101" />
      <feComposite
         in="flood"
         in2="SourceGraphic"
         operator="in"
         result="composite1"
         id="feComposite103" />
      <feGaussianBlur
         in="composite1"
         stdDeviation="3"
         result="blur"
         id="feGaussianBlur105" />
      <feOffset
         dx="6"
         dy="6"
         result="offset"
         id="feOffset107" />
      <feComposite
         in="offset"
         in2="SourceGraphic"
         operator="out"
         result="composite2"
         id="feComposite109" />
    </filter>
    <filter
       style="color-interpolation-filters:sRGB"
       inkscape:label="Drop Shadow"
       id="filter985">
      <feFlood
         flood-opacity="0.498039"
         flood-color="rgb(0,0,0)"
         result="flood"
         id="feFlood975" />
      <feComposite
         in="flood"
         in2="SourceGraphic"
         operator="in"
         result="composite1"
         id="feComposite977" />
      <feGaussianBlur
         in="composite1"
         stdDeviation="2"
         result="blur"
         id="feGaussianBlur979" />
      <feOffset
         dx="3"
         dy="3"
         result="offset"
         id="feOffset981" />
      <feComposite
         in="SourceGraphic"
         in2="offset"
         operator="over"
         result="composite2"
         id="feComposite983" />
    </filter>
  </defs>
  <sodipodi:namedview
     id="base"
     pagecolor="#ffffff"
     bordercolor="#666666"
     borderopacity="1.0"
     inkscape:pageopacity="0.0"
     inkscape:pageshadow="2"
     inkscape:zoom="1.4142136"
     inkscape:cx="177.35445"
     inkscape:cy="47.535483"
     inkscape:document-units="px"
     inkscape:current-layer="text3988"
     showgrid="false"
     inkscape:window-width="1916"
     inkscape:window-height="1050"
     inkscape:window-x="0"
     inkscape:window-y="1108"
     inkscape:window-maximized="0"
     fit-margin-top="0"
     fit-margin-left="0"
     fit-margin-right="0"
     fit-margin-bottom="0"
     units="px" />
  <metadata
     id="metadata5">
    <rdf:RDF>
      <cc:Work
         rdf:about="">
        <dc:format>image/svg+xml</dc:format>
        <dc:type
           rdf:resource="http://purl.org/dc/dcmitype/StillImage" />
        <dc:title></dc:title>
      </cc:Work>
    </rdf:RDF>
  </metadata>
  <g
     inkscape:label="Layer 1"
     inkscape:groupmode="layer"
     id="layer1"
     transform="translate(-10.699918,-6.6369141)">
    <g
       aria-label="t"
       style="font-style:normal;font-weight:normal;font-size:10.58333302px;line-height:1.25;font-family:sans-serif;letter-spacing:0px;word-spacing:0px;fill:#000000;fill-opacity:1;stroke:#000000;stroke-width:1.32291663;stroke-miterlimit:4;stroke-dasharray:none"
       id="text3988"
       transform="matrix(1,0,-0.31502027,1,17.701143,0)">
      <g
         id="g862"
         transform="translate(0.11319981,-1.3089581)">
        <path
           sodipodi:nodetypes="ccccccccccccccsccccscccccccccccc"
           inkscape:connector-curvature="0"
           id="path861"
           transform="matrix(0.26458334,0,0.08334911,0.26458334,-18.281621,0.00836669)"
           d="m 98.142578,34.947266 c -0.271159,4.09e-4 -0.482256,0.22101 -0.470703,0.492187 l 0.02344,0.511719 -1.322265,15.34375 H 81.572266 c -0.271284,4.08e-4 -0.480547,0.220923 -0.46875,0.492187 l -1.833985,3.771485 c 0.01241,0.271143 0.242524,0.489773 0.513672,0.490234 h 16.800781 l 0.470704,10.671875 C 97.17906,69.533405 97.784158,71.672709 99.183594,73 l 0.002,0.002 c 0.0026,0.002 0.0054,0.004 0.0078,0.0059 0.03633,0.03439 0.07675,0.0633 0.121094,0.08594 1.405582,1.237697 3.528832,1.71875 6.304692,1.71875 h 2.14257 c 0.27116,-4.12e-4 0.4803,-0.221022 0.46875,-0.492188 l 1.82422,-3.982421 c -0.0124,-0.271144 -0.24253,-0.491727 -0.51367,-0.492188 h -4.14063 c -1.34029,0 -2.12622,-0.345783 -2.23047,-0.443359 0.006,0.0045 -0.1737,-0.278837 -0.29297,-0.740235 -0.11996,-0.464182 -0.22334,-1.117847 -0.25976,-1.941406 l -0.47266,-10.669922 h 6.42578 c 0.27128,-4.12e-4 0.48057,-0.220919 0.46875,-0.492187 l 1.83399,-3.771485 c -0.0124,-0.271294 -0.24238,-0.489996 -0.51367,-0.490234 h -8.42383 l -0.7012,-15.857512 c -0.0124,-0.271283 -0.24238,-0.491948 -0.51368,-0.492187 z"
           style="color:#000000;font-style:normal;font-variant:normal;font-weight:normal;font-stretch:normal;font-size:50.79999924px;line-height:1.25;font-family:'DejaVu Sans';-inkscape-font-specification:'DejaVu Sans';font-variant-ligatures:normal;font-variant-position:normal;font-variant-caps:normal;font-variant-numeric:normal;font-variant-alternates:normal;font-feature-settings:normal;text-indent:0;text-align:start;text-decoration:none;text-decoration-line:none;text-decoration-style:solid;text-decoration-color:#000000;letter-spacing:0px;word-spacing:0px;text-transform:none;writing-mode:lr-tb;direction:ltr;text-orientation:mixed;dominant-baseline:auto;baseline-shift:baseline;text-anchor:start;white-space:normal;shape-padding:0;clip-rule:nonzero;display:inline;overflow:visible;visibility:visible;opacity:1;isolation:auto;mix-blend-mode:normal;color-interpolation:sRGB;color-interpolation-filters:linearRGB;solid-color:#000000;solid-opacity:1;vector-effect:none;fill:#424242;fill-opacity:1;fill-rule:nonzero;stroke:none;stroke-width:1.02417767;stroke-linecap:butt;stroke-linejoin:miter;stroke-miterlimit:4;stroke-dasharray:none;stroke-dashoffset:0;stroke-opacity:1;color-rendering:auto;image-rendering:auto;shape-rendering:auto;text-rendering:auto;enable-background:accumulate" />
        <path
           inkscape:connector-curvature="0"
           id="path859"
           transform="matrix(0.26458334,0,0.08334911,0.26458334,-18.281621,0.00836669)"
           d="M 84.46875,40.224609 83.875,48.314453 h 5 l 0.59375,-8.089844 z"
           style="color:#000000;font-style:normal;font-variant:normal;font-weight:normal;font-stretch:normal;font-size:50.79999924px;line-height:1.25;font-family:'DejaVu Sans';-inkscape-font-specification:'DejaVu Sans';font-variant-ligatures:normal;font-variant-position:normal;font-variant-caps:normal;font-variant-numeric:normal;font-variant-alternates:normal;font-feature-settings:normal;text-indent:0;text-align:start;text-decoration:none;text-decoration-line:none;text-decoration-style:solid;text-decoration-color:#000000;letter-spacing:0px;word-spacing:0px;text-transform:none;writing-mode:lr-tb;direction:ltr;text-orientation:mixed;dominant-baseline:auto;baseline-shift:baseline;text-anchor:start;white-space:normal;shape-padding:0;clip-rule:nonzero;display:inline;overflow:visible;visibility:visible;opacity:1;isolation:auto;mix-blend-mode:normal;color-interpolation:sRGB;color-interpolation-filters:linearRGB;solid-color:#000000;solid-opacity:1;vector-effect:none;fill:#424242;fill-opacity:1;fill-rule:nonzero;stroke:none;stroke-width:1.02417767;stroke-linecap:butt;stroke-linejoin:miter;stroke-miterlimit:4;stroke-dasharray:none;stroke-dashoffset:0;stroke-opacity:1;color-rendering:auto;image-rendering:auto;shape-rendering:auto;text-rendering:auto;enable-background:accumulate" />
        <path
           inkscape:connector-curvature="0"
           id="path857"
           transform="matrix(0.26458334,0,0.08334911,0.26458334,-18.281621,0.00836669)"
           d="m 140.46875,40.224609 -0.59375,8.089844 h 5 l 0.59375,-8.089844 z"
           style="color:#000000;font-style:normal;font-variant:normal;font-weight:normal;font-stretch:normal;font-size:50.79999924px;line-height:1.25;font-family:'DejaVu Sans';-inkscape-font-specification:'DejaVu Sans';font-variant-ligatures:normal;font-variant-position:normal;font-variant-caps:normal;font-variant-numeric:normal;font-variant-alternates:normal;font-feature-settings:normal;text-indent:0;text-align:start;text-decoration:none;text-decoration-line:none;text-decoration-style:solid;text-decoration-color:#000000;letter-spacing:0px;word-spacing:0px;text-transform:none;writing-mode:lr-tb;direction:ltr;text-orientation:mixed;dominant-baseline:auto;baseline-shift:baseline;text-anchor:start;white-space:normal;shape-padding:0;clip-rule:nonzero;display:inline;overflow:visible;visibility:visible;opacity:1;isolation:auto;mix-blend-mode:normal;color-interpolation:sRGB;color-interpolation-filters:linearRGB;solid-color:#000000;solid-opacity:1;vector-effect:none;fill:#424242;fill-opacity:1;fill-rule:nonzero;stroke:none;stroke-width:1.02417767;stroke-linecap:butt;stroke-linejoin:miter;stroke-miterlimit:4;stroke-dasharray:none;stroke-dashoffset:0;stroke-opacity:1;color-rendering:auto;image-rendering:auto;shape-rendering:auto;text-rendering:auto;enable-background:accumulate" />
        <path
           inkscape:connector-curvature="0"
           id="path855"
           transform="matrix(0.26458334,0,0.08334911,0.26458334,-18.281621,0.00836669)"
           d="m 120.56055,41.091797 c -2.7732,0 -4.85177,0.479229 -6.14844,1.714844 -0.0442,0.02268 -0.0847,0.05259 -0.11914,0.08789 -0.002,0.0016 -0.004,0.0041 -0.006,0.0059 h -0.002 c -1.28315,1.327181 -1.69865,3.467497 -1.57422,6.28125 l 0.47265,10.673828 h -7.06445 c -0.27116,4.12e-4 -0.48225,0.219068 -0.4707,0.490234 l -1.83399,3.771485 c 0.0124,0.271143 0.24253,0.489773 0.51367,0.490234 h 9.09376 l 1.49218,19.96875 c 0.0204,0.265323 0.2482,0.476472 0.51367,0.476562 h 2.57813 c 0.27722,-2.04e-4 0.48914,-0.228748 0.46875,-0.505859 l 0.51172,-19.939453 h 4.3457 c 0.27116,-4.08e-4 0.4803,-0.219072 0.46875,-0.490234 l 1.83399,-3.771485 c -0.0124,-0.271294 -0.24238,-0.491945 -0.51368,-0.492187 h -6.37695 l -0.4707,-10.671875 c -0.0364,-0.823567 0.009,-1.477213 0.0879,-1.941407 0.0784,-0.461374 0.23179,-0.744512 0.22656,-0.740234 0.0956,-0.09763 0.85113,-0.443359 2.19141,-0.443359 h 4.14062 c 0.27131,-1.74e-4 0.48229,-0.220874 0.4707,-0.492188 l -0.17578,-3.980469 c -0.0124,-0.271143 -0.24252,-0.491726 -0.51367,-0.492187 z"
           style="color:#000000;font-style:normal;font-variant:normal;font-weight:normal;font-stretch:normal;font-size:50.79999924px;line-height:1.25;font-family:'DejaVu Sans';-inkscape-font-specification:'DejaVu Sans';font-variant-ligatures:normal;font-variant-position:normal;font-variant-caps:normal;font-variant-numeric:normal;font-variant-alternates:normal;font-feature-settings:normal;text-indent:0;text-align:start;text-decoration:none;text-decoration-line:none;text-decoration-style:solid;text-decoration-color:#000000;letter-spacing:0px;word-spacing:0px;text-transform:none;writing-mode:lr-tb;direction:ltr;text-orientation:mixed;dominant-baseline:auto;baseline-shift:baseline;text-anchor:start;white-space:normal;shape-padding:0;clip-rule:nonzero;display:inline;overflow:visible;visibility:visible;opacity:1;isolation:auto;mix-blend-mode:normal;color-interpolation:sRGB;color-interpolation-filters:linearRGB;solid-color:#000000;solid-opacity:1;vector-effect:none;fill:#424242;fill-opacity:1;fill-rule:nonzero;stroke:none;stroke-width:1.02417767;stroke-linecap:butt;stroke-linejoin:miter;stroke-miterlimit:4;stroke-dasharray:none;stroke-dashoffset:0;stroke-opacity:1;color-rendering:auto;image-rendering:auto;shape-rendering:auto;text-rendering:auto;enable-background:accumulate" />
        <path
           inkscape:connector-curvature="0"
           id="path853"
           transform="matrix(0.26458334,0,0.08334911,0.26458334,-18.281621,0.00836669)"
           d="m 154.9043,41.091797 c -0.2649,2.04e-4 -0.47315,0.209868 -0.47071,0.474609 l 0.006,0.496094 -1.90625,9.232422 h -16.52343 c -0.27144,2.04e-4 -0.48055,0.220734 -0.46875,0.492187 l -1.83399,3.771485 c 0.0124,0.271143 0.24252,0.489773 0.51367,0.490234 h 18.48828 l 0.47071,10.671875 c 0.12442,2.813749 0.73033,4.954077 2.13086,6.28125 l 0.002,0.002 c 0.002,0.0016 0.004,0.0022 0.006,0.0039 0.0377,0.03515 0.0809,0.06514 0.12695,0.08789 1.40529,1.23515 3.52328,1.716797 6.29688,1.716797 h 2.14453 c 0.27131,-1.74e-4 0.48033,-0.22087 0.46875,-0.492188 l 1.82422,-3.982421 c -0.0124,-0.271295 -0.24238,-0.491946 -0.51367,-0.492188 h -4.14063 c -1.34027,0 -2.12622,-0.343826 -2.23047,-0.441406 0.006,0.0045 -0.17372,-0.280794 -0.29297,-0.742188 -0.11996,-0.464182 -0.22334,-1.117847 -0.25976,-1.941406 l -0.47266,-10.669922 h 4.78711 c 0.27143,-2.04e-4 0.48054,-0.220734 0.46875,-0.492187 l 1.83399,-3.771485 c -0.0124,-0.271143 -0.24253,-0.489773 -0.51368,-0.490234 h -6.75195 l -0.0977,-9.697266 c -0.003,-0.277719 -0.23581,-0.50754 -0.51367,-0.507812 z"
           style="color:#000000;font-style:normal;font-variant:normal;font-weight:normal;font-stretch:normal;font-size:50.79999924px;line-height:1.25;font-family:'DejaVu Sans';-inkscape-font-specification:'DejaVu Sans';font-variant-ligatures:normal;font-variant-position:normal;font-variant-caps:normal;font-variant-numeric:normal;font-variant-alternates:normal;font-feature-settings:normal;text-indent:0;text-align:start;text-decoration:none;text-decoration-line:none;text-decoration-style:solid;text-decoration-color:#000000;letter-spacing:0px;word-spacing:0px;text-transform:none;writing-mode:lr-tb;direction:ltr;text-orientation:mixed;dominant-baseline:auto;baseline-shift:baseline;text-anchor:start;white-space:normal;shape-padding:0;clip-rule:nonzero;display:inline;overflow:visible;visibility:visible;opacity:1;isolation:auto;mix-blend-mode:normal;color-interpolation:sRGB;color-interpolation-filters:linearRGB;solid-color:#000000;solid-opacity:1;vector-effect:none;fill:#424242;fill-opacity:1;fill-rule:nonzero;stroke:none;stroke-width:1.02417767;stroke-linecap:butt;stroke-linejoin:miter;stroke-miterlimit:4;stroke-dasharray:none;stroke-dashoffset:0;stroke-opacity:1;color-rendering:auto;image-rendering:auto;shape-rendering:auto;text-rendering:auto;enable-background:accumulate" />
        <path
           inkscape:connector-curvature="0"
           id="path851"
           transform="matrix(0.26458334,0,0.08334911,0.26458334,-18.281621,0.00836669)"
           d="m 128.82031,41.501953 c -0.26954,2.08e-4 -0.4798,0.216803 -0.4707,0.486328 l 0.0176,0.509766 v 0.002 l -1.63477,9.794922 c -4e-5,10e-4 7e-5,0.0029 0,0.0039 l 0.12305,2.748047 0.51562,11.673828 c 0.12443,2.813745 0.72839,4.954077 2.12891,6.28125 l 0.002,0.002 c 0.002,0.0014 0.006,0.0023 0.008,0.0039 0.0377,0.03515 0.0789,0.06514 0.125,0.08789 1.40563,1.235411 3.5272,1.716797 6.30078,1.716797 h 2.14062 c 0.27116,-4.08e-4 0.48226,-0.221022 0.47071,-0.492188 l 1.82421,-3.982421 c -0.0122,-0.271484 -0.24217,-0.492018 -0.51367,-0.492188 h -4.14258 c -1.34027,0 -2.12622,-0.343826 -2.23046,-0.441406 0.006,0.0045 -0.17178,-0.280794 -0.29102,-0.742188 -0.11996,-0.464186 -0.22335,-1.117858 -0.25977,-1.941406 l -0.51757,-11.673828 -0.1211,-2.744141 -0.38476,-10.304687 c -0.0107,-0.272466 -0.2412,-0.49575 -0.51368,-0.496094 z"
           style="color:#000000;font-style:normal;font-variant:normal;font-weight:normal;font-stretch:normal;font-size:50.79999924px;line-height:1.25;font-family:'DejaVu Sans';-inkscape-font-specification:'DejaVu Sans';font-variant-ligatures:normal;font-variant-position:normal;font-variant-caps:normal;font-variant-numeric:normal;font-variant-alternates:normal;font-feature-settings:normal;text-indent:0;text-align:start;text-decoration:none;text-decoration-line:none;text-decoration-style:solid;text-decoration-color:#000000;letter-spacing:0px;word-spacing:0px;text-transform:none;writing-mode:lr-tb;direction:ltr;text-orientation:mixed;dominant-baseline:auto;baseline-shift:baseline;text-anchor:start;white-space:normal;shape-padding:0;clip-rule:nonzero;display:inline;overflow:visible;visibility:visible;opacity:1;isolation:auto;mix-blend-mode:normal;color-interpolation:sRGB;color-interpolation-filters:linearRGB;solid-color:#000000;solid-opacity:1;vector-effect:none;fill:#424242;fill-opacity:1;fill-rule:nonzero;stroke:none;stroke-width:1.02417767;stroke-linecap:butt;stroke-linejoin:miter;stroke-miterlimit:4;stroke-dasharray:none;stroke-dashoffset:0;stroke-opacity:1;color-rendering:auto;image-rendering:auto;shape-rendering:auto;text-rendering:auto;enable-background:accumulate" />
        <path
           inkscape:connector-curvature="0"
           id="path849"
           d="m 2.2831996,14.267445 c -0.048029,0.0047 -0.051869,0.0087 -0.065762,0.01344 -0.5826596,0.03044 -0.999583,0.156417 -1.1909197,0.441833 -0.00839,0.0059 -0.015686,0.01299 -0.020805,0.0217 -3.639e-4,3.7e-4 -6.32e-4,0.0011 -9.761e-4,0.0016 l -3.308e-4,5.29e-4 c -0.20797342,0.351215 -0.10523397,0.917033 0.206649,1.661397 l 1.3675814,3.264401 c 0.03017,0.07174 0.1129266,0.130102 0.1847135,0.130224 h 0.682129 c 0.071702,-1.09e-4 0.1051685,-0.05848 0.075219,-0.130224 l -0.8384141,-3.26444 c -0.091295,-0.21789 -0.1440759,-0.390719 -0.1692523,-0.513663 -0.02503,-0.122201 -0.012637,-0.19768 -0.01365,-0.196371 0.013618,-0.02236 0.1522158,-0.103362 0.4441851,-0.113688 0.3005897,0.01034 0.507919,0.09171 0.5397342,0.113688 -0.00206,-0.0012 0.073738,0.07417 0.1511088,0.196371 0.077843,0.122944 0.1699415,0.295773 0.2612363,0.513663 l 1.3675814,3.264401 c 0.03017,0.07174 0.1129263,0.130102 0.1847136,0.130224 h 0.1369425 0.4092773 0.1369425 c 0.071702,-1.09e-4 0.1051675,-0.05848 0.075219,-0.130224 L 5.3679227,16.407883 c -0.091295,-0.21789 -0.1440758,-0.39072 -0.1692523,-0.513664 -0.02503,-0.122201 -0.012637,-0.197679 -0.01365,-0.19637 0.013619,-0.02237 0.1521647,-0.103374 0.444185,-0.113688 0.3006233,0.01032 0.5079174,0.09172 0.5397343,0.113688 -0.00206,-0.0012 0.073737,0.07417 0.1511088,0.19637 0.077843,0.122944 0.1699414,0.295774 0.2612362,0.513664 l 1.3675812,3.2644 c 0.03017,0.07174 0.1129266,0.130103 0.1847135,0.130225 h 0.6816122 c 0.071701,-1.09e-4 0.1056853,-0.05848 0.075736,-0.130225 l -0.8389315,-3.2644 C 7.7400705,15.663416 7.3680442,15.097119 6.8658853,14.745969 h -5.292e-4 c -7.209e-4,-3.71e-4 -0.00143,-0.0011 -0.00215,-0.0016 -0.012415,-0.0087 -0.025293,-0.0158 -0.038623,-0.0217 h -5.292e-4 c -0.4306423,-0.285362 -0.9535105,-0.412033 -1.5620776,-0.44235 -0.00241,-7.15e-4 -0.00459,-0.0015 -0.00698,-0.0021 l -0.037529,-0.0078 c -0.010769,-0.0022 -0.021089,-0.0032 -0.031134,-0.0031 h -0.016021 c -0.032072,0 -0.061299,3.97e-4 -0.089013,10e-4 -0.029277,-4.24e-4 -0.06079,-10e-4 -0.096505,-10e-4 h -0.016021 c -0.01014,-1.08e-4 -0.019887,8.73e-4 -0.02881,0.0031 l -0.030684,0.0078 c -0.00145,3.7e-4 -0.00268,0.0011 -0.00407,0.0016 -0.4753694,0.02542 -0.8137315,0.129819 -1.0330196,0.315743 -0.3754207,-0.18611 -0.801408,-0.290448 -1.2986211,-0.315743 -0.00135,-4.23e-4 -0.00282,-0.0011 -0.0042,-0.0016 l -0.037528,-0.0078 c -0.010769,-0.0022 -0.021089,-0.0032 -0.031135,-0.0031 h -0.016021 c -0.031508,0 -0.060192,3.97e-4 -0.087463,10e-4 -0.030775,-6.09e-4 -0.062967,-10e-4 -0.098055,-10e-4 z"
           style="color:#000000;font-style:normal;font-variant:normal;font-weight:normal;font-stretch:normal;font-size:50.79999924px;line-height:1.25;font-family:'DejaVu Sans';-inkscape-font-specification:'DejaVu Sans';font-variant-ligatures:normal;font-variant-position:normal;font-variant-caps:normal;font-variant-numeric:normal;font-variant-alternates:normal;font-feature-settings:normal;text-indent:0;text-align:start;text-decoration:none;text-decoration-line:none;text-decoration-style:solid;text-decoration-color:#000000;letter-spacing:0px;word-spacing:0px;text-transform:none;writing-mode:lr-tb;direction:ltr;text-orientation:mixed;dominant-baseline:auto;baseline-shift:baseline;text-anchor:start;white-space:normal;shape-padding:0;clip-rule:nonzero;display:inline;overflow:visible;visibility:visible;opacity:1;isolation:auto;mix-blend-mode:normal;color-interpolation:sRGB;color-interpolation-filters:linearRGB;solid-color:#000000;solid-opacity:1;vector-effect:none;fill:#424242;fill-opacity:1;fill-rule:nonzero;stroke:none;stroke-width:0.27098036;stroke-linecap:butt;stroke-linejoin:miter;stroke-miterlimit:4;stroke-dasharray:none;stroke-dashoffset:0;stroke-opacity:1;color-rendering:auto;image-rendering:auto;shape-rendering:auto;text-rendering:auto;enable-background:accumulate" />
        <path
           inkscape:connector-curvature="0"
           id="path847"
           transform="matrix(0.26458334,0,0.08334911,0.26458334,-18.281621,0.00836669)"
           d="m 84.474609,58.808594 c -0.271226,4.08e-4 -0.480402,0.220946 -0.46875,0.492187 l 0.02148,0.511719 -0.08203,6.908203 c -0.03271,2.765787 0.730332,4.954077 2.13086,6.28125 l 0.002,0.002 0.0059,0.0039 c 0.03719,0.03515 0.07945,0.06499 0.125,0.08789 1.405627,1.236027 3.52659,1.716797 6.300782,1.716797 h 2.140625 c 0.271235,-4.12e-4 0.482337,-0.220946 0.470703,-0.492188 l 1.824218,-3.982421 c -0.01236,-0.271257 -0.242392,-0.49184 -0.513671,-0.492188 h -4.140625 c -1.340278,0 -2.126193,-0.343826 -2.230469,-0.441406 0.0054,0.0045 -0.173705,-0.280794 -0.292969,-0.742188 -0.119965,-0.464182 -0.266213,-1.130864 -0.259766,-1.941406 l 0.05859,-7.419922 c -0.01233,-0.271256 -0.242393,-0.491836 -0.513672,-0.492187 z"
           style="color:#000000;font-style:normal;font-variant:normal;font-weight:normal;font-stretch:normal;font-size:50.79999924px;line-height:1.25;font-family:'DejaVu Sans';-inkscape-font-specification:'DejaVu Sans';font-variant-ligatures:normal;font-variant-position:normal;font-variant-caps:normal;font-variant-numeric:normal;font-variant-alternates:normal;font-feature-settings:normal;text-indent:0;text-align:start;text-decoration:none;text-decoration-line:none;text-decoration-style:solid;text-decoration-color:#000000;letter-spacing:0px;word-spacing:0px;text-transform:none;writing-mode:lr-tb;direction:ltr;text-orientation:mixed;dominant-baseline:auto;baseline-shift:baseline;text-anchor:start;white-space:normal;shape-padding:0;clip-rule:nonzero;display:inline;overflow:visible;visibility:visible;opacity:1;isolation:auto;mix-blend-mode:normal;color-interpolation:sRGB;color-interpolation-filters:linearRGB;solid-color:#000000;solid-opacity:1;vector-effect:none;fill:#424242;fill-opacity:1;fill-rule:nonzero;stroke:none;stroke-width:1.02417767;stroke-linecap:butt;stroke-linejoin:miter;stroke-miterlimit:4;stroke-dasharray:none;stroke-dashoffset:0;stroke-opacity:1;color-rendering:auto;image-rendering:auto;shape-rendering:auto;text-rendering:auto;enable-background:accumulate" />
        <path
           inkscape:connector-curvature="0"
           id="path845"
           transform="matrix(0.26458334,0,0.08334911,0.26458334,-18.281621,0.00836669)"
           d="m 141.00977,58.808594 c -0.27124,4.08e-4 -0.48237,0.220946 -0.47071,0.492187 l 0.0234,0.511719 -0.082,6.908203 c -0.0327,2.764759 0.72948,4.952006 2.12891,6.279297 l 0.002,0.002 c 0.002,0.0023 0.005,0.0035 0.008,0.0059 0.0364,0.03439 0.0767,0.06322 0.12109,0.08594 1.4056,1.237697 3.52883,1.71875 6.30469,1.71875 h 2.14063 c 0.27123,-4.12e-4 0.48233,-0.220946 0.4707,-0.492188 l 1.82422,-3.982421 c -0.0123,-0.271257 -0.2424,-0.491829 -0.51367,-0.492188 h -4.14063 c -1.34028,0 -2.12621,-0.345783 -2.23047,-0.443359 0.006,0.0045 -0.1737,-0.278837 -0.29297,-0.740235 -0.11996,-0.464182 -0.22334,-1.117847 -0.25976,-1.941406 l 0.0586,-7.419922 c -0.0123,-0.271256 -0.2424,-0.491832 -0.51367,-0.492187 z"
           style="color:#000000;font-style:normal;font-variant:normal;font-weight:normal;font-stretch:normal;font-size:50.79999924px;line-height:1.25;font-family:'DejaVu Sans';-inkscape-font-specification:'DejaVu Sans';font-variant-ligatures:normal;font-variant-position:normal;font-variant-caps:normal;font-variant-numeric:normal;font-variant-alternates:normal;font-feature-settings:normal;text-indent:0;text-align:start;text-decoration:none;text-decoration-line:none;text-decoration-style:solid;text-decoration-color:#000000;letter-spacing:0px;word-spacing:0px;text-transform:none;writing-mode:lr-tb;direction:ltr;text-orientation:mixed;dominant-baseline:auto;baseline-shift:baseline;text-anchor:start;white-space:normal;shape-padding:0;clip-rule:nonzero;display:inline;overflow:visible;visibility:visible;opacity:1;isolation:auto;mix-blend-mode:normal;color-interpolation:sRGB;color-interpolation-filters:linearRGB;solid-color:#000000;solid-opacity:1;vector-effect:none;fill:#424242;fill-opacity:1;fill-rule:nonzero;stroke:none;stroke-width:1.02417767;stroke-linecap:butt;stroke-linejoin:miter;stroke-miterlimit:4;stroke-dasharray:none;stroke-dashoffset:0;stroke-opacity:1;color-rendering:auto;image-rendering:auto;shape-rendering:auto;text-rendering:auto;enable-background:accumulate" />
        <path
           inkscape:connector-curvature="0"
           id="path843"
           transform="matrix(0.26458334,0,0.08334911,0.26458334,-18.281621,0.00836669)"
           d="m 42.644531,80.570312 v 3.832032 h 68.027349 v -3.832032 z"
           style="color:#000000;font-style:normal;font-variant:normal;font-weight:normal;font-stretch:normal;font-size:50.79999924px;line-height:1.25;font-family:'DejaVu Sans';-inkscape-font-specification:'DejaVu Sans';font-variant-ligatures:normal;font-variant-position:normal;font-variant-caps:normal;font-variant-numeric:normal;font-variant-alternates:normal;font-feature-settings:normal;text-indent:0;text-align:start;text-decoration:none;text-decoration-line:none;text-decoration-style:solid;text-decoration-color:#000000;letter-spacing:0px;word-spacing:0px;text-transform:none;writing-mode:lr-tb;direction:ltr;text-orientation:mixed;dominant-baseline:auto;baseline-shift:baseline;text-anchor:start;white-space:normal;shape-padding:0;clip-rule:nonzero;display:inline;overflow:visible;visibility:visible;opacity:1;isolation:auto;mix-blend-mode:normal;color-interpolation:sRGB;color-interpolation-filters:linearRGB;solid-color:#000000;solid-opacity:1;vector-effect:none;fill:#424242;fill-opacity:1;fill-rule:nonzero;stroke:none;stroke-width:1.02417767;stroke-linecap:butt;stroke-linejoin:miter;stroke-miterlimit:4;stroke-dasharray:none;stroke-dashoffset:0;stroke-opacity:1;color-rendering:auto;image-rendering:auto;shape-rendering:auto;text-rendering:auto;enable-background:accumulate" />
        <path
           inkscape:connector-curvature="0"
           id="path884"
           transform="matrix(0.26458334,0,0.08334911,0.26458334,-18.281621,0.00836669)"
           d="m 122.39453,80.570312 v 3.832032 h 56.27735 v -3.832032 z"
           style="color:#000000;font-style:normal;font-variant:normal;font-weight:normal;font-stretch:normal;font-size:50.79999924px;line-height:1.25;font-family:'DejaVu Sans';-inkscape-font-specification:'DejaVu Sans';font-variant-ligatures:normal;font-variant-position:normal;font-variant-caps:normal;font-variant-numeric:normal;font-variant-alternates:normal;font-feature-settings:normal;text-indent:0;text-align:start;text-decoration:none;text-decoration-line:none;text-decoration-style:solid;text-decoration-color:#000000;letter-spacing:0px;word-spacing:0px;text-transform:none;writing-mode:lr-tb;direction:ltr;text-orientation:mixed;dominant-baseline:auto;baseline-shift:baseline;text-anchor:start;white-space:normal;shape-padding:0;clip-rule:nonzero;display:inline;overflow:visible;visibility:visible;opacity:1;isolation:auto;mix-blend-mode:normal;color-interpolation:sRGB;color-interpolation-filters:linearRGB;solid-color:#000000;solid-opacity:1;vector-effect:none;fill:#424242;fill-opacity:1;fill-rule:nonzero;stroke:none;stroke-width:1.02417767;stroke-linecap:butt;stroke-linejoin:miter;stroke-miterlimit:4;stroke-dasharray:none;stroke-dashoffset:0;stroke-opacity:1;color-rendering:auto;image-rendering:auto;shape-rendering:auto;text-rendering:auto;enable-background:accumulate" />
      </g>
    </g>
    <g
       aria-label="t"
       transform="matrix(1,0,0.31502027,-1,20.346976,0)"
       style="font-style:normal;font-weight:normal;font-size:10.58333302px;line-height:1.25;font-family:sans-serif;letter-spacing:0px;word-spacing:0px;fill:#000000;fill-opacity:1;stroke:#000000;stroke-width:1.32291663;stroke-miterlimit:4;stroke-dasharray:none"
       id="text3992" />
    <g
       aria-label="t"
       style="font-style:normal;font-weight:normal;font-size:10.58333302px;line-height:1.25;font-family:sans-serif;letter-spacing:0px;word-spacing:0px;fill:#000000;fill-opacity:1;stroke:#000000;stroke-width:1.32291663;stroke-miterlimit:4;stroke-dasharray:none"
       id="text3996"
       transform="matrix(1,0,-0.31502027,1,15.584476,0)" />
    <g
       aria-label="t"
       style="font-style:normal;font-weight:normal;font-size:10.58333302px;line-height:1.25;font-family:sans-serif;letter-spacing:0px;word-spacing:0px;fill:#000000;fill-opacity:1;stroke:#000000;stroke-width:1.32291663;stroke-miterlimit:4;stroke-dasharray:none"
       id="text4010"
       transform="matrix(1,0,-0.31502027,1,25.109477,0)" />
    <g
       id="g4018"
       style="font-style:normal;font-weight:normal;font-size:10.58333302px;line-height:1.25;font-family:sans-serif;letter-spacing:0px;word-spacing:0px;fill:#000000;fill-opacity:1;stroke:#000000;stroke-width:1.32291663;stroke-miterlimit:4;stroke-dasharray:none"
       aria-label="t"
       transform="matrix(1,0,-0.31502027,1,33.046982,0)" />
    <g
       transform="matrix(1,0,-0.31502027,1,-60.086398,0)"
       id="g4030"
       style="font-style:normal;font-weight:normal;font-size:10.58333302px;line-height:1.25;font-family:sans-serif;letter-spacing:0px;word-spacing:0px;fill:#000000;fill-opacity:1;stroke:#000000;stroke-width:1.32291663;stroke-miterlimit:4;stroke-dasharray:none"
       aria-label="t" />
    <circle
       r="0"
       style="font-style:normal;font-weight:normal;font-size:10.58333302px;line-height:1.25;font-family:sans-serif;letter-spacing:0px;word-spacing:0px;fill:#000000;fill-opacity:1;stroke:#000000;stroke-width:1.32291663;stroke-miterlimit:4;stroke-dasharray:none"
       id="ellipse33"
       cx="79.51268"
       cy="28.8004" />
  </g>
</svg>
